<svg width="19" height="19" viewBox="0 0 19 19" fill="none" xmlns="http://www.w3.org/2000/svg">
<path d="M19 9.5C19 14.7467 14.7467 19 9.5 19C4.25329 19 0 14.7467 0 9.5C0 4.25329 4.25329 0 9.5 0C14.7467 0 19 4.25329 19 9.5Z" fill="#7DB54F"/>
<path d="M5.63078 12.26H7.03078V7.42L7.13078 6.83L6.73078 7.3L5.63078 8.09L5.25078 7.58L7.45078 5.88H7.81078V12.26H9.18078V13H5.63078V12.26ZM13.46 7.59C13.46 7.94333 13.3933 8.30667 13.26 8.68C13.1333 9.04667 12.9633 9.41667 12.75 9.79C12.5433 10.1633 12.31 10.53 12.05 10.89C11.79 11.2433 11.53 11.58 11.27 11.9L10.78 12.33V12.37L11.42 12.26H13.6V13H9.62V12.71C9.76667 12.5567 9.94333 12.3667 10.15 12.14C10.3567 11.9133 10.57 11.6633 10.79 11.39C11.0167 11.11 11.2367 10.8167 11.45 10.51C11.67 10.1967 11.8667 9.88 12.04 9.56C12.22 9.24 12.3633 8.92333 12.47 8.61C12.5767 8.29667 12.63 8 12.63 7.72C12.63 7.39333 12.5367 7.12333 12.35 6.91C12.1633 6.69 11.88 6.58 11.5 6.58C11.2467 6.58 11 6.63333 10.76 6.74C10.52 6.84 10.3133 6.95667 10.14 7.09L9.81 6.52C10.0433 6.32 10.32 6.16333 10.64 6.05C10.96 5.93667 11.3033 5.88 11.67 5.88C11.9567 5.88 12.21 5.92333 12.43 6.01C12.65 6.09 12.8367 6.20667 12.99 6.36C13.1433 6.51333 13.26 6.69667 13.34 6.91C13.42 7.11667 13.46 7.34333 13.46 7.59Z" fill="white"/>
</svg>
